<svg width="61" height="61" viewBox="0 0 61 61" fill="none" xmlns="http://www.w3.org/2000/svg">
<circle cx="30.5" cy="30.5" r="30.5" fill="#00D1FF"/>
<path d="M29.9999 29.5451C32.5601 29.5451 34.7453 28.6392 36.5561 26.8283C38.3671 25.0175 39.2728 22.8322 39.2728 20.2723C39.2728 17.7128 38.3671 15.5275 36.5561 13.7162C34.7447 11.9054 32.5594 11 29.9999 11C27.4403 11 25.2546 11.9054 23.4438 13.7162C21.6327 15.5275 20.7271 17.7127 20.7271 20.2723C20.7271 22.8322 21.6327 25.0175 23.4438 26.8283C25.2551 28.6392 27.4402 29.5451 29.9999 29.5451Z" fill="white"/>
<path d="M46.9147 39.3364C46.8582 38.5237 46.7454 37.6461 46.5767 36.7042C46.4076 35.7624 46.1941 34.8895 45.9364 34.0842C45.6788 33.2795 45.3326 32.4946 44.898 31.7299C44.4635 30.9652 43.9645 30.3134 43.4007 29.7739C42.8369 29.2345 42.1489 28.8042 41.3365 28.4823C40.5231 28.1605 39.6256 27.9993 38.6436 27.9993C38.4989 27.9993 38.1607 28.1723 37.6294 28.5185C37.0986 28.8647 36.4989 29.2511 35.8308 29.6779C35.1628 30.1039 34.293 30.4906 33.2229 30.8362C32.1523 31.1823 31.0779 31.3555 29.999 31.3555C28.9205 31.3555 27.846 31.1823 26.7756 30.8362C25.7052 30.4906 24.8357 30.1039 24.1676 29.6779C23.4996 29.2511 22.9001 28.8647 22.3689 28.5185C21.8375 28.1723 21.4996 27.9993 21.3547 27.9993C20.3728 27.9993 19.4753 28.1605 18.6624 28.4823C17.8493 28.8042 17.1612 29.2349 16.5977 29.7739C16.0343 30.3134 15.5352 30.9652 15.1007 31.7299C14.6663 32.4946 14.3202 33.2799 14.0625 34.0842C13.805 34.8895 13.5916 35.7624 13.4226 36.7042C13.2535 37.6461 13.1408 38.5231 13.0844 39.3364C13.0281 40.1497 13 40.9828 13 41.836C13 43.7674 13.5877 45.2931 14.7628 46.412C15.9381 47.5304 17.4997 48.0896 19.4475 48.0896H40.5524C42.5001 48.0896 44.0615 47.5304 45.237 46.412C46.4127 45.2931 47 43.7676 47 41.836C46.9998 40.9828 46.9718 40.1497 46.9147 39.3364Z" fill="white"/>
</svg>
