<svg width="80" height="80" viewBox="0 0 80 80" fill="none" xmlns="http://www.w3.org/2000/svg">
<circle cx="40" cy="40" r="40" fill="#00D1FF"/>
<path d="M39.344 38.7477C42.7017 38.7477 45.5676 37.5597 47.9424 35.1848C50.3175 32.8098 51.5052 29.9439 51.5052 26.5867C51.5052 23.23 50.3175 20.364 47.9424 17.9885C45.5668 15.6137 42.7008 14.4263 39.344 14.4263C35.9872 14.4263 33.1208 15.6137 30.7459 17.9885C28.3707 20.364 27.183 23.2299 27.183 26.5867C27.183 29.9439 28.3707 32.8098 30.7459 35.1848C33.1214 37.5597 35.9871 38.7477 39.344 38.7477Z" fill="white"/>
<path d="M61.5275 51.5887C61.4535 50.5228 61.3055 49.3719 61.0842 48.1367C60.8625 46.9015 60.5824 45.7567 60.2445 44.7006C59.9067 43.6453 59.4527 42.6159 58.8826 41.613C58.3128 40.6101 57.6584 39.7553 56.919 39.0477C56.1796 38.3403 55.2772 37.776 54.2118 37.3538C53.1451 36.9318 51.968 36.7203 50.6801 36.7203C50.4903 36.7203 50.0469 36.9473 49.35 37.4013C48.6539 37.8553 47.8674 38.3621 46.9912 38.9218C46.1151 39.4805 44.9744 39.9876 43.571 40.4409C42.167 40.8949 40.758 41.1219 39.3429 41.1219C37.9285 41.1219 36.5193 40.8949 35.1155 40.4409C33.7118 39.9876 32.5714 39.4805 31.6953 38.9218C30.8192 38.3621 30.0329 37.8554 29.3363 37.4013C28.6394 36.9473 28.1962 36.7203 28.0062 36.7203C26.7184 36.7203 25.5413 36.9318 24.4753 37.3538C23.409 37.776 22.5065 38.3408 21.7675 39.0477C21.0286 39.7553 20.3741 40.6101 19.8043 41.613C19.2345 42.6159 18.7806 43.6457 18.4427 44.7006C18.1049 45.7567 17.8251 46.9015 17.6035 48.1367C17.3816 49.3719 17.2339 50.5221 17.1599 51.5887C17.086 52.6553 17.0492 53.7479 17.0492 54.8668C17.0492 57.3998 17.82 59.4008 19.361 60.8681C20.9024 62.335 22.9504 63.0683 25.505 63.0683H53.1835C55.7378 63.0683 57.7856 62.335 59.3272 60.8681C60.8691 59.4008 61.6394 57.4002 61.6394 54.8668C61.6391 53.7479 61.6023 52.6553 61.5275 51.5887Z" fill="white"/>
</svg>
