<?xml version="1.0" standalone="no"?>
<!DOCTYPE svg PUBLIC "-//W3C//DTD SVG 20010904//EN"
 "http://www.w3.org/TR/2001/REC-SVG-20010904/DTD/svg10.dtd">
<svg version="1.0" xmlns="http://www.w3.org/2000/svg"
 width="260.000000pt" height="260.000000pt" viewBox="0 0 260.000000 260.000000"
 preserveAspectRatio="xMidYMid meet">
<metadata>
Created by potrace 1.14, written by Peter Selinger 2001-2017
</metadata>
<g transform="translate(0.000000,260.000000) scale(0.100000,-0.100000)"
fill="#000000" stroke="none">
<path d="M621 2394 c-222 -18 -405 -35 -407 -37 -3 -3 49 -331 61 -384 l5 -23
294 0 c246 0 296 -2 306 -15 6 -8 17 -75 24 -149 6 -74 14 -137 17 -140 2 -3
27 61 53 142 27 81 54 150 60 154 6 4 32 8 59 8 l47 0 0 240 0 240 -57 -1
c-32 -1 -240 -16 -462 -35z m428 -142 c7 -14 6 -25 -5 -40 -15 -22 -19 -22
-345 -22 -209 0 -337 4 -350 10 -18 10 -26 50 -12 63 3 4 163 7 354 7 328 0
349 -1 358 -18z m1 -161 c13 -25 13 -27 -6 -45 -13 -14 -56 -16 -313 -16 -218
0 -300 3 -309 12 -13 13 -16 50 -5 61 3 4 145 7 314 7 295 0 309 -1 319 -19z"/>
<path d="M1459 2223 c0 -4 -8 -113 -17 -240 l-17 -233 38 0 c64 0 73 -11 113
-134 21 -63 41 -113 44 -111 4 2 15 41 25 87 11 45 26 89 35 98 14 14 75 19
367 35 l351 18 6 41 c10 76 29 326 25 330 -2 3 -204 27 -449 55 -245 28 -462
54 -482 57 -21 3 -38 2 -39 -3z m849 -187 c2 -16 -2 -32 -10 -37 -7 -5 -174
-9 -370 -9 -311 0 -359 2 -372 16 -19 18 -19 20 -6 45 10 19 23 19 383 17
l372 -3 3 -29z m-8 -140 c6 -8 10 -25 8 -38 l-3 -23 -370 -3 c-339 -2 -371 -1
-382 15 -17 22 -16 28 3 47 13 14 61 16 373 16 301 0 360 -2 371 -14z"/>
<path d="M620 1251 c-85 -26 -156 -87 -191 -165 -29 -64 -26 -169 7 -234 23
-47 104 -132 125 -132 5 0 9 -13 9 -30 0 -33 -6 -36 -106 -43 -73 -6 -136 -32
-188 -78 -83 -72 -116 -161 -116 -311 l0 -98 511 0 511 0 -4 122 c-4 108 -8
130 -31 179 -49 102 -149 173 -260 186 -28 3 -58 10 -64 16 -15 11 -18 57 -4
57 5 0 31 20 59 45 127 115 128 305 0 420 -71 64 -176 91 -258 66z"/>
<path d="M1880 1251 c-134 -44 -209 -143 -210 -276 0 -94 29 -156 104 -220 38
-33 56 -56 56 -72 0 -26 -11 -29 -108 -36 -81 -7 -157 -43 -212 -103 -67 -73
-83 -120 -88 -262 l-4 -122 512 0 512 0 -4 118 c-3 103 -7 125 -32 179 -49
107 -145 177 -259 190 -28 3 -58 10 -64 16 -15 11 -18 57 -4 57 21 0 102 85
125 132 33 66 36 170 7 234 -27 58 -81 116 -136 143 -51 25 -151 37 -195 22z"/>
</g>
</svg>
