<svg width="40" height="40" viewBox="0 0 40 40" fill="none" xmlns="http://www.w3.org/2000/svg">
<g clip-path="url(#clip0_426_135)">
<path d="M20 0C16.0444 0 12.1776 1.17298 8.8886 3.37061C5.59962 5.56824 3.03617 8.69181 1.52242 12.3463C0.00866572 16.0009 -0.387401 20.0222 0.384303 23.9018C1.15601 27.7814 3.06082 31.3451 5.85787 34.1421C8.65492 36.9392 12.2186 38.844 16.0982 39.6157C19.9778 40.3874 23.9992 39.9913 27.6537 38.4776C31.3082 36.9638 34.4318 34.4004 36.6294 31.1114C38.827 27.8224 40 23.9556 40 20C40 14.6957 37.8929 9.60859 34.1421 5.85786C30.3914 2.10714 25.3043 0 20 0V0ZM20 36.6667C16.7037 36.6667 13.4813 35.6892 10.7405 33.8578C7.99969 32.0265 5.86348 29.4235 4.60202 26.3781C3.34056 23.3326 3.0105 19.9815 3.65359 16.7485C4.29667 13.5155 5.88402 10.5458 8.2149 8.21489C10.5458 5.88401 13.5155 4.29667 16.7485 3.65358C19.9815 3.01049 23.3326 3.34055 26.3781 4.60201C29.4235 5.86347 32.0265 7.99968 33.8578 10.7405C35.6892 13.4813 36.6667 16.7036 36.6667 20C36.6667 24.4203 34.9107 28.6595 31.7851 31.7851C28.6595 34.9107 24.4203 36.6667 20 36.6667V36.6667Z" fill="#172549"/>
<path d="M28.3333 12.0834H11.6667C11.2246 12.0834 10.8007 12.259 10.4882 12.5715C10.1756 12.8841 10 13.308 10 13.75C10 14.1921 10.1756 14.616 10.4882 14.9286C10.8007 15.2411 11.2246 15.4167 11.6667 15.4167H28.3333C28.7754 15.4167 29.1993 15.2411 29.5118 14.9286C29.8244 14.616 30 14.1921 30 13.75C30 13.308 29.8244 12.8841 29.5118 12.5715C29.1993 12.259 28.7754 12.0834 28.3333 12.0834Z" fill="#172549"/>
<path d="M28.3333 18.3334H11.6667C11.2246 18.3334 10.8007 18.509 10.4882 18.8215C10.1756 19.1341 10 19.558 10 20C10 20.4421 10.1756 20.866 10.4882 21.1786C10.8007 21.4911 11.2246 21.6667 11.6667 21.6667H28.3333C28.7754 21.6667 29.1993 21.4911 29.5118 21.1786C29.8244 20.866 30 20.4421 30 20C30 19.558 29.8244 19.1341 29.5118 18.8215C29.1993 18.509 28.7754 18.3334 28.3333 18.3334Z" fill="#172549"/>
<path d="M28.3333 24.5834H11.6667C11.2246 24.5834 10.8007 24.759 10.4882 25.0715C10.1756 25.3841 10 25.808 10 26.25C10 26.6921 10.1756 27.116 10.4882 27.4286C10.8007 27.7411 11.2246 27.9167 11.6667 27.9167H28.3333C28.7754 27.9167 29.1993 27.7411 29.5118 27.4286C29.8244 27.116 30 26.6921 30 26.25C30 25.808 29.8244 25.3841 29.5118 25.0715C29.1993 24.759 28.7754 24.5834 28.3333 24.5834Z" fill="#172549"/>
</g>
<defs>
<clipPath id="clip0_426_135">
<rect width="40" height="40" fill="white"/>
</clipPath>
</defs>
</svg>
