<svg width="25" height="25" viewBox="0 0 41 41" fill="none" xmlns="http://www.w3.org/2000/svg">
<path d="M41 3.65723C40.9969 3.44093 40.9085 3.23462 40.754 3.08323L37.9168 0.246025C37.7608 0.0947363 37.5519 0.0101318 37.3346 0.0101318C37.1173 0.0101318 36.9084 0.0947363 36.7524 0.246025L34.276 2.73883C33.8244 2.43502 33.2849 2.28954 32.7418 2.32515C32.1987 2.36076 31.6828 2.57546 31.2748 2.93563L30.668 2.32883C30.3634 2.02386 30.0016 1.78193 29.6034 1.61687C29.2053 1.45181 28.7784 1.36685 28.3474 1.36685C27.9164 1.36685 27.4895 1.45181 27.0914 1.61687C26.6932 1.78193 26.3314 2.02386 26.0268 2.32883L16.6788 11.6768L17.8432 12.8412L27.1912 3.49323C27.3437 3.33951 27.525 3.2175 27.7249 3.13424C27.9247 3.05098 28.1391 3.00812 28.3556 3.00812C28.5721 3.00812 28.7865 3.05098 28.9863 3.13424C29.1862 3.2175 29.3675 3.33951 29.52 3.49323L30.1104 4.08363L2.706 31.3896C2.60725 31.4848 2.53395 31.6032 2.4928 31.734L0.0328003 39.934C-0.00595315 40.0572 -0.0150487 40.1879 0.00625468 40.3153C0.0275581 40.4427 0.0786577 40.5633 0.15539 40.6672C0.232123 40.7711 0.332318 40.8554 0.447812 40.9132C0.563306 40.9711 0.690832 41.0008 0.82 41H1.066L9.266 38.5236C9.39518 38.4872 9.51344 38.4196 9.6104 38.3268L38.0316 9.84003C38.4276 9.43652 38.6692 8.90667 38.7142 8.34308C38.7592 7.77949 38.6046 7.21802 38.2776 6.75683L40.7704 4.26403C40.8479 4.18382 40.9083 4.08863 40.9478 3.9843C40.9872 3.87996 41.005 3.76867 41 3.65723ZM3.8704 32.8L8.1016 37.0312L2.05 38.95L3.8704 32.8ZM36.8672 8.65923L9.4136 36.08L4.92 31.5536L32.3408 4.13283C32.4933 3.98745 32.6959 3.90635 32.9066 3.90635C33.1173 3.90635 33.3199 3.98745 33.4724 4.13283L36.8672 7.52763C36.9431 7.60103 37.0034 7.68895 37.0446 7.78615C37.0858 7.88335 37.1071 7.98785 37.1071 8.09343C37.1071 8.199 37.0858 8.3035 37.0446 8.4007C37.0034 8.4979 36.9431 8.58582 36.8672 8.65923V8.65923ZM37.1624 5.51043L35.5224 3.87043L37.3756 2.01723L39.0156 3.65723L37.1624 5.51043Z" fill="white"/>
</svg>
