<svg width="25" height="25" viewBox="0 0 41 41" fill="none" xmlns="http://www.w3.org/2000/svg">
<path d="M35.6017 7.87536C34.7291 7.00241 33.6931 6.30992 32.5529 5.83746C31.4127 5.365 30.1905 5.12183 28.9563 5.12183C27.722 5.12183 26.4998 5.365 25.3596 5.83746C24.2194 6.30992 23.1834 7.00241 22.3108 7.87536L20.5 9.6862L18.6892 7.87536C16.9267 6.11289 14.5363 5.12274 12.0437 5.12274C9.55123 5.12274 7.16081 6.11289 5.39833 7.87536C3.63586 9.63784 2.64571 12.0283 2.64571 14.5208C2.64571 17.0133 3.63586 19.4037 5.39833 21.1662L7.20916 22.977L20.5 36.2679L33.7908 22.977L35.6017 21.1662C36.4746 20.2937 37.1671 19.2577 37.6396 18.1174C38.112 16.9772 38.3552 15.755 38.3552 14.5208C38.3552 13.2865 38.112 12.0644 37.6396 10.9241C37.1671 9.78389 36.4746 8.7479 35.6017 7.87536V7.87536Z" stroke="white" stroke-width="2" stroke-linecap="round" stroke-linejoin="round"/>
</svg>
