<svg width="28" height="28" viewBox="0 0 32 32" fill="none" xmlns="http://www.w3.org/2000/svg">
<path d="M20 4C15.6 4 12 7.6 12 12C12 12.9 12.2 13.8 12.4 14.6L4 23V28H9C9 26.5 9 25 9 25H11C11 23.9 11 23 11 23H13C13 21.9 13 21 13 21H16L17.4 19.6C18.2 19.9 19.1 20 20 20C24.4 20 28 16.4 28 12C28 7.6 24.4 4 20 4Z" stroke="black" stroke-width="2" stroke-miterlimit="10" stroke-linecap="round" stroke-linejoin="round"/>
<path d="M21 13C22.1046 13 23 12.1046 23 11C23 9.89543 22.1046 9 21 9C19.8954 9 19 9.89543 19 11C19 12.1046 19.8954 13 21 13Z" stroke="black" stroke-width="2" stroke-miterlimit="10" stroke-linecap="round" stroke-linejoin="round"/>
</svg>
