<svg width="28" height="28" viewBox="0 0 28 28" fill="none" xmlns="http://www.w3.org/2000/svg">
<path d="M4.66663 13.9999C4.66663 14.3093 4.78954 14.6061 5.00833 14.8249C5.22713 15.0437 5.52387 15.1666 5.83329 15.1666H14.6883L12.005 17.8383C11.8956 17.9467 11.8088 18.0757 11.7496 18.2179C11.6904 18.3601 11.6599 18.5126 11.6599 18.6666C11.6599 18.8206 11.6904 18.9731 11.7496 19.1153C11.8088 19.2574 11.8956 19.3865 12.005 19.4949C12.1134 19.6043 12.2424 19.6911 12.3846 19.7503C12.5268 19.8095 12.6793 19.84 12.8333 19.84C12.9873 19.84 13.1398 19.8095 13.282 19.7503C13.4241 19.6911 13.5532 19.6043 13.6616 19.4949L18.3283 14.8283C18.4345 14.7173 18.5178 14.5865 18.5733 14.4433C18.69 14.1592 18.69 13.8406 18.5733 13.5566C18.5178 13.4134 18.4345 13.2825 18.3283 13.1716L13.6616 8.50492C13.5528 8.39614 13.4237 8.30985 13.2816 8.25098C13.1395 8.19211 12.9871 8.16181 12.8333 8.16181C12.6795 8.16181 12.5271 8.19211 12.385 8.25098C12.2429 8.30985 12.1137 8.39614 12.005 8.50492C11.8962 8.6137 11.8099 8.74284 11.751 8.88496C11.6922 9.02709 11.6619 9.17942 11.6619 9.33325C11.6619 9.48709 11.6922 9.63942 11.751 9.78154C11.8099 9.92367 11.8962 10.0528 12.005 10.1616L14.6883 12.8333H5.83329C5.52387 12.8333 5.22713 12.9562 5.00833 13.175C4.78954 13.3938 4.66663 13.6905 4.66663 13.9999V13.9999ZM19.8333 2.33325H8.16663C7.23837 2.33325 6.34813 2.702 5.69175 3.35838C5.03537 4.01476 4.66663 4.90499 4.66663 5.83325V9.33325C4.66663 9.64267 4.78954 9.93942 5.00833 10.1582C5.22713 10.377 5.52387 10.4999 5.83329 10.4999C6.14271 10.4999 6.43946 10.377 6.65825 10.1582C6.87704 9.93942 6.99996 9.64267 6.99996 9.33325V5.83325C6.99996 5.52383 7.12288 5.22709 7.34167 5.00829C7.56046 4.7895 7.85721 4.66659 8.16663 4.66659H19.8333C20.1427 4.66659 20.4395 4.7895 20.6582 5.00829C20.877 5.22709 21 5.52383 21 5.83325V22.1666C21 22.476 20.877 22.7728 20.6582 22.9915C20.4395 23.2103 20.1427 23.3333 19.8333 23.3333H8.16663C7.85721 23.3333 7.56046 23.2103 7.34167 22.9915C7.12288 22.7728 6.99996 22.476 6.99996 22.1666V18.6666C6.99996 18.3572 6.87704 18.0604 6.65825 17.8416C6.43946 17.6228 6.14271 17.4999 5.83329 17.4999C5.52387 17.4999 5.22713 17.6228 5.00833 17.8416C4.78954 18.0604 4.66663 18.3572 4.66663 18.6666V22.1666C4.66663 23.0948 5.03537 23.9851 5.69175 24.6415C6.34813 25.2978 7.23837 25.6666 8.16663 25.6666H19.8333C20.7615 25.6666 21.6518 25.2978 22.3082 24.6415C22.9645 23.9851 23.3333 23.0948 23.3333 22.1666V5.83325C23.3333 4.90499 22.9645 4.01476 22.3082 3.35838C21.6518 2.702 20.7615 2.33325 19.8333 2.33325Z" fill="black"/>
</svg>
