<svg width="28" height="28" viewBox="0 0 28 28" fill="none" xmlns="http://www.w3.org/2000/svg">
<path d="M18.6667 24.5V22.1667C18.6667 20.929 18.175 19.742 17.2998 18.8668C16.4247 17.9917 15.2377 17.5 14 17.5H5.83332C4.59565 17.5 3.40866 17.9917 2.53349 18.8668C1.65832 19.742 1.16666 20.929 1.16666 22.1667V24.5" stroke="black" stroke-width="2" stroke-linecap="round" stroke-linejoin="round"/>
<path d="M9.91667 12.8333C12.494 12.8333 14.5833 10.744 14.5833 8.16667C14.5833 5.58934 12.494 3.5 9.91667 3.5C7.33934 3.5 5.25 5.58934 5.25 8.16667C5.25 10.744 7.33934 12.8333 9.91667 12.8333Z" stroke="black" stroke-width="2" stroke-linecap="round" stroke-linejoin="round"/>
<path d="M23.3333 9.33325V16.3333" stroke="black" stroke-width="2" stroke-linecap="round" stroke-linejoin="round"/>
<path d="M26.8333 12.8333H19.8333" stroke="black" stroke-width="2" stroke-linecap="round" stroke-linejoin="round"/>
</svg>
