<svg width="30" height="30" viewBox="0 0 59 59" fill="none" xmlns="http://www.w3.org/2000/svg">
<path d="M29.5 36.875C33.5731 36.875 36.875 33.5731 36.875 29.5C36.875 25.4269 33.5731 22.125 29.5 22.125C25.4269 22.125 22.125 25.4269 22.125 29.5C22.125 33.5731 25.4269 36.875 29.5 36.875Z" stroke="white" stroke-width="3" stroke-linecap="round" stroke-linejoin="round"/>
<path d="M47.6917 36.8749C47.3644 37.6164 47.2668 38.4389 47.4114 39.2364C47.556 40.0338 47.9362 40.7697 48.5029 41.3491L48.6504 41.4966C49.1076 41.9532 49.4702 42.4955 49.7176 43.0923C49.9651 43.6892 50.0924 44.329 50.0924 44.9751C50.0924 45.6213 49.9651 46.261 49.7176 46.8579C49.4702 47.4548 49.1076 47.997 48.6504 48.4537C48.1938 48.9108 47.6515 49.2734 47.0547 49.5209C46.4578 49.7683 45.818 49.8957 45.1719 49.8957C44.5258 49.8957 43.886 49.7683 43.2891 49.5209C42.6922 49.2734 42.15 48.9108 41.6933 48.4537L41.5458 48.3062C40.9665 47.7394 40.2306 47.3593 39.4331 47.2147C38.6357 47.0701 37.8131 47.1677 37.0717 47.4949C36.3446 47.8065 35.7245 48.324 35.2877 48.9835C34.8509 49.6431 34.6165 50.4159 34.6133 51.207V51.6249C34.6133 52.9289 34.0953 54.1795 33.1733 55.1015C32.2512 56.0236 31.0007 56.5416 29.6967 56.5416C28.3927 56.5416 27.1421 56.0236 26.2201 55.1015C25.298 54.1795 24.78 52.9289 24.78 51.6249V51.4037C24.761 50.59 24.4976 49.8008 24.0241 49.1388C23.5506 48.4768 22.8889 47.9725 22.125 47.6916C21.3835 47.3643 20.561 47.2667 19.7636 47.4113C18.9661 47.5559 18.2302 47.9361 17.6508 48.5028L17.5033 48.6503C17.0467 49.1075 16.5045 49.4701 15.9076 49.7175C15.3107 49.965 14.6709 50.0923 14.0248 50.0923C13.3787 50.0923 12.7389 49.965 12.142 49.7175C11.5451 49.4701 11.0029 49.1075 10.5463 48.6503C10.0891 48.1937 9.72648 47.6515 9.47905 47.0546C9.23162 46.4577 9.10427 45.8179 9.10427 45.1718C9.10427 44.5257 9.23162 43.8859 9.47905 43.289C9.72648 42.6921 10.0891 42.1499 10.5463 41.6932L10.6938 41.5457C11.2605 40.9664 11.6407 40.2305 11.7853 39.433C11.9299 38.6356 11.8323 37.8131 11.505 37.0716C11.1934 36.3445 10.676 35.7244 10.0164 35.2876C9.35686 34.8508 8.58399 34.6164 7.79293 34.6133H7.37501C6.07103 34.6133 4.82046 34.0952 3.8984 33.1732C2.97635 32.2511 2.45834 31.0006 2.45834 29.6966C2.45834 28.3926 2.97635 27.142 3.8984 26.22C4.82046 25.2979 6.07103 24.7799 7.37501 24.7799H7.59626C8.40995 24.7609 9.1991 24.4975 9.86112 24.024C10.5231 23.5505 11.0274 22.8888 11.3083 22.1249C11.6356 21.3834 11.7332 20.5609 11.5886 19.7635C11.444 18.966 11.0638 18.2301 10.4971 17.6508L10.3496 17.5033C9.89246 17.0466 9.52981 16.5044 9.28238 15.9075C9.03496 15.3106 8.9076 14.6708 8.9076 14.0247C8.9076 13.3786 9.03496 12.7388 9.28238 12.1419C9.52981 11.545 9.89246 11.0028 10.3496 10.5462C10.8062 10.089 11.3485 9.72639 11.9453 9.47896C12.5422 9.23153 13.182 9.10418 13.8281 9.10418C14.4743 9.10418 15.1141 9.23153 15.7109 9.47896C16.3078 9.72639 16.8501 10.089 17.3067 10.5462L17.4542 10.6937C18.0336 11.2604 18.7694 11.6406 19.5669 11.7852C20.3644 11.9298 21.1869 11.8322 21.9283 11.5049H22.125C22.8521 11.1933 23.4722 10.6759 23.909 10.0163C24.3458 9.35677 24.5802 8.58389 24.5833 7.79284V7.37492C24.5833 6.07094 25.1013 4.82036 26.0234 3.89831C26.9455 2.97626 28.196 2.45825 29.5 2.45825C30.804 2.45825 32.0546 2.97626 32.9766 3.89831C33.8987 4.82036 34.4167 6.07094 34.4167 7.37492V7.59617C34.4198 8.38723 34.6542 9.1601 35.091 9.81965C35.5278 10.4792 36.1479 10.9966 36.875 11.3083C37.6165 11.6355 38.439 11.7331 39.2365 11.5885C40.0339 11.4439 40.7698 11.0637 41.3492 10.497L41.4967 10.3495C41.9533 9.89237 42.4956 9.52972 43.0924 9.28229C43.6893 9.03486 44.3291 8.90751 44.9752 8.90751C45.6213 8.90751 46.2611 9.03486 46.858 9.28229C47.4549 9.52972 47.9971 9.89237 48.4538 10.3495C48.9109 10.8061 49.2735 11.3484 49.521 11.9453C49.7684 12.5421 49.8958 13.1819 49.8958 13.828C49.8958 14.4742 49.7684 15.114 49.521 15.7108C49.2735 16.3077 48.9109 16.85 48.4538 17.3066L48.3063 17.4541C47.7395 18.0335 47.3593 18.7693 47.2147 19.5668C47.0702 20.3643 47.1678 21.1868 47.495 21.9283V22.1249C47.8066 22.852 48.3241 23.4721 48.9836 23.9089C49.6432 24.3457 50.416 24.5801 51.2071 24.5833H51.625C52.929 24.5833 54.1796 25.1013 55.1016 26.0233C56.0237 26.9454 56.5417 28.1959 56.5417 29.4999C56.5417 30.8039 56.0237 32.0545 55.1016 32.9765C54.1796 33.8986 52.929 34.4166 51.625 34.4166H51.4038C50.6127 34.4197 49.8398 34.6541 49.1803 35.0909C48.5207 35.5277 48.0033 36.1478 47.6917 36.8749V36.8749Z" stroke="white" stroke-width="3" stroke-linecap="round" stroke-linejoin="round"/>
</svg>
