<svg width="25" height="25" viewBox="0 0 41 41" fill="none" xmlns="http://www.w3.org/2000/svg">
<path d="M30.75 13.6666C33.5805 13.6666 35.875 11.3721 35.875 8.54163C35.875 5.71117 33.5805 3.41663 30.75 3.41663C27.9195 3.41663 25.625 5.71117 25.625 8.54163C25.625 11.3721 27.9195 13.6666 30.75 13.6666Z" stroke="#A3E5FF" stroke-width="2" stroke-linecap="round" stroke-linejoin="round"/>
<path d="M10.25 25.625C13.0805 25.625 15.375 23.3305 15.375 20.5C15.375 17.6695 13.0805 15.375 10.25 15.375C7.41954 15.375 5.125 17.6695 5.125 20.5C5.125 23.3305 7.41954 25.625 10.25 25.625Z" stroke="#A3E5FF" stroke-width="2" stroke-linecap="round" stroke-linejoin="round"/>
<path d="M30.75 37.5834C33.5805 37.5834 35.875 35.2888 35.875 32.4584C35.875 29.6279 33.5805 27.3334 30.75 27.3334C27.9195 27.3334 25.625 29.6279 25.625 32.4584C25.625 35.2888 27.9195 37.5834 30.75 37.5834Z" stroke="#A3E5FF" stroke-width="2" stroke-linecap="round" stroke-linejoin="round"/>
<path d="M14.6746 23.0796L26.3425 29.8788" stroke="#A3E5FF" stroke-width="2" stroke-linecap="round" stroke-linejoin="round"/>
<path d="M26.3254 11.1212L14.6746 17.9204" stroke="#A3E5FF" stroke-width="2" stroke-linecap="round" stroke-linejoin="round"/>
</svg>
