<svg width="12" height="12" viewBox="0 0 12 12" fill="none" xmlns="http://www.w3.org/2000/svg">
<g clip-path="url(#clip0_244_135)">
<path d="M1.75704 10.2425C-0.586006 7.89948 -0.586006 4.10038 1.75704 1.75729C4.10084 -0.585762 7.89921 -0.585762 10.243 1.75729C12.5861 4.10036 12.5861 7.89948 10.243 10.2425C7.89921 12.5859 4.10084 12.5859 1.75704 10.2425ZM9.18241 2.81786C7.42458 1.06039 4.57545 1.06039 2.81834 2.81786C1.0605 4.57532 1.0605 7.4245 2.81834 9.18196C4.57545 10.9394 7.42458 10.9394 9.18241 9.18196C10.9396 7.42445 10.9396 4.57532 9.18241 2.81786ZM4.40918 8.65168L3.34861 7.59076L4.93945 5.9999L3.34861 4.40905L4.40918 3.34811L6.00002 4.93933L7.59089 3.34811L8.65144 4.40905L7.06059 5.9999L8.65144 7.59076L7.59089 8.65168L6.00002 7.06047L4.40918 8.65168Z" fill="#00D1FF"/>
</g>
<defs>
<clipPath id="clip0_244_135">
<rect width="12" height="12" fill="white"/>
</clipPath>
</defs>
</svg>
