<svg width="40" height="40" viewBox="0 0 40 40" fill="none" xmlns="http://www.w3.org/2000/svg">
<path d="M35 31.25C36.125 29.75 37 28.125 37.625 26.375C37.625 26.25 37.75 26.125 37.75 25.875C37.875 25.625 37.875 25.25 38 25C38.125 24.75 38.125 24.5 38.25 24.25C38.25 24 38.375 23.75 38.375 23.5C38.5 23.125 38.5 22.75 38.5 22.5C38.5 22.25 38.5 22.125 38.625 21.875C38.625 21.25 38.75 20.75 38.75 20.125C38.75 9.75 30.375 1.375 20 1.375C9.625 1.375 1.25 9.625 1.25 20C1.25 20.625 1.25 21.125 1.375 21.75C1.375 22 1.375 22.125 1.5 22.375C1.5 22.75 1.625 23.125 1.625 23.375C1.625 23.625 1.75 23.875 1.75 24.125C1.75 24.375 1.875 24.625 2 24.875C2.125 25.125 2.125 25.5 2.25 25.75C2.25 25.875 2.375 26 2.375 26.25C3 28.125 3.875 29.75 5 31.25C8.375 35.75 13.875 38.75 20 38.75C26.125 38.75 31.5 35.75 35 31.25ZM20 36.25C14.25 36.25 9.25 33.25 6.375 28.75C8.375 25.5 11.5 23.125 15.25 22C13.5 20.625 12.5 18.5 12.5 16.25C12.5 12.125 15.875 8.75 20 8.75C24.125 8.75 27.5 12.125 27.5 16.25C27.5 18.5 26.5 20.625 24.875 22C28.5 23.125 31.625 25.625 33.75 28.75C30.75 33.25 25.75 36.25 20 36.25Z" fill="#00D1FF"/>
</svg>
