<svg width="50" height="50" viewBox="0 0 50 50" fill="none" xmlns="http://www.w3.org/2000/svg">
<path d="M43.75 39.0625C45.1562 37.1875 46.25 35.1562 47.0312 32.9688C47.0312 32.8125 47.1875 32.6562 47.1875 32.3438C47.3438 32.0312 47.3438 31.5625 47.5 31.25C47.6562 30.9375 47.6562 30.625 47.8125 30.3125C47.8125 30 47.9688 29.6875 47.9688 29.375C48.125 28.9062 48.125 28.4375 48.125 28.125C48.125 27.8125 48.125 27.6562 48.2812 27.3438C48.2812 26.5625 48.4375 25.9375 48.4375 25.1562C48.4375 12.1875 37.9688 1.71875 25 1.71875C12.0312 1.71875 1.5625 12.0312 1.5625 25C1.5625 25.7812 1.5625 26.4062 1.71875 27.1875C1.71875 27.5 1.71875 27.6562 1.875 27.9687C1.875 28.4375 2.03125 28.9062 2.03125 29.2188C2.03125 29.5312 2.1875 29.8437 2.1875 30.1562C2.1875 30.4687 2.34375 30.7812 2.5 31.0937C2.65625 31.4062 2.65625 31.875 2.8125 32.1875C2.8125 32.3438 2.96875 32.5 2.96875 32.8125C3.75 35.1562 4.84375 37.1875 6.25 39.0625C10.4688 44.6875 17.3438 48.4375 25 48.4375C32.6562 48.4375 39.375 44.6875 43.75 39.0625ZM25 45.3125C17.8125 45.3125 11.5625 41.5625 7.96875 35.9375C10.4688 31.875 14.375 28.9062 19.0625 27.5C16.875 25.7812 15.625 23.125 15.625 20.3125C15.625 15.1562 19.8438 10.9375 25 10.9375C30.1562 10.9375 34.375 15.1562 34.375 20.3125C34.375 23.125 33.125 25.7812 31.0938 27.5C35.625 28.9062 39.5312 32.0312 42.1875 35.9375C38.4375 41.5625 32.1875 45.3125 25 45.3125Z" fill="#00D1FF"/>
</svg>
