<svg width="253" height="48" viewBox="0 0 253 48" fill="none" xmlns="http://www.w3.org/2000/svg">
<path d="M3.95843 15.25H12.1406C12.286 15.2495 12.4262 15.3038 12.5334 15.402C12.6405 15.5003 12.7067 15.6353 12.7188 15.7801L13.0656 19.9108L14.4878 15.6454C14.5259 15.5311 14.5987 15.4315 14.6962 15.3606C14.7936 15.2897 14.9108 15.251 15.0313 15.25H16.1875V8.36047L2.98602 9.41671L3.95843 15.25ZM14.4531 14.0937H6.35938C6.20605 14.0937 6.05901 14.0328 5.95059 13.9244C5.84217 13.816 5.78126 13.6689 5.78126 13.5156C5.78126 13.3623 5.84217 13.2152 5.95059 13.1068C6.05901 12.9984 6.20605 12.9375 6.35938 12.9375H14.4531C14.6065 12.9375 14.7535 12.9984 14.8619 13.1068C14.9703 13.2152 15.0313 13.3623 15.0313 13.5156C15.0313 13.6689 14.9703 13.816 14.8619 13.9244C14.7535 14.0328 14.6065 14.0937 14.4531 14.0937ZM5.20313 10.625H14.4531C14.6065 10.625 14.7535 10.6859 14.8619 10.7943C14.9703 10.9027 15.0313 11.0498 15.0313 11.2031C15.0313 11.3564 14.9703 11.5035 14.8619 11.6119C14.7535 11.7203 14.6065 11.7812 14.4531 11.7812H5.20313C5.0498 11.7812 4.90276 11.7203 4.79434 11.6119C4.68592 11.5035 4.62501 11.3564 4.62501 11.2031C4.62501 11.0498 4.68592 10.9027 4.79434 10.7943C4.90276 10.6859 5.0498 10.625 5.20313 10.625Z" fill="#00D1FF"/>
<path d="M20.768 11.2684L20.2772 18.1406H21.3906C21.5119 18.1407 21.6301 18.1789 21.7285 18.2499C21.8268 18.3209 21.9004 18.421 21.9387 18.536L23.0452 21.8556L23.7205 19.1564C23.7503 19.0366 23.8177 18.9294 23.9127 18.8507C24.0078 18.7719 24.1256 18.7257 24.2489 18.7187L34.1568 18.1684L34.6389 12.8681L20.768 11.2684ZM32.375 16.9844H22.5469C22.3936 16.9844 22.2465 16.9234 22.1381 16.815C22.0297 16.7066 21.9688 16.5596 21.9688 16.4062C21.9688 16.2529 22.0297 16.1059 22.1381 15.9974C22.2465 15.889 22.3936 15.8281 22.5469 15.8281H32.375C32.5283 15.8281 32.6754 15.889 32.7838 15.9974C32.8922 16.1059 32.9531 16.2529 32.9531 16.4062C32.9531 16.5596 32.8922 16.7066 32.7838 16.815C32.6754 16.9234 32.5283 16.9844 32.375 16.9844ZM32.375 14.6719H22.5469C22.3936 14.6719 22.2465 14.6109 22.1381 14.5025C22.0297 14.3941 21.9688 14.2471 21.9688 14.0937C21.9688 13.9404 22.0297 13.7934 22.1381 13.6849C22.2465 13.5765 22.3936 13.5156 22.5469 13.5156H32.375C32.5283 13.5156 32.6754 13.5765 32.7838 13.6849C32.8922 13.7934 32.9531 13.9404 32.9531 14.0937C32.9531 14.2471 32.8922 14.3941 32.7838 14.5025C32.6754 14.6109 32.5283 14.6719 32.375 14.6719Z" fill="#00D1FF"/>
<path d="M16.7656 40.6875H2.3125V38.375C2.31388 37.1488 2.80159 35.9732 3.66865 35.1062C4.53571 34.2391 5.7113 33.7514 6.9375 33.75H7.59078C7.71894 33.75 7.84347 33.7074 7.94478 33.6289C8.04609 33.5504 8.11845 33.4405 8.15049 33.3164C8.18252 33.1923 8.17241 33.0611 8.12175 32.9433C8.07108 32.8256 7.98274 32.7281 7.87059 32.666C7.08522 32.232 6.46639 31.5492 6.11139 30.7251C5.7564 29.9009 5.68539 28.9822 5.90952 28.1133C6.13365 27.2444 6.64021 26.4746 7.34956 25.925C8.0589 25.3755 8.93079 25.0772 9.82812 25.0772C10.7255 25.0772 11.5974 25.3755 12.3067 25.925C13.016 26.4746 13.5226 27.2444 13.7467 28.1133C13.9709 28.9822 13.8998 29.9009 13.5449 30.7251C13.1899 31.5492 12.571 32.232 11.7857 32.666C11.6735 32.7281 11.5852 32.8256 11.5345 32.9433C11.4838 33.0611 11.4737 33.1923 11.5058 33.3164C11.5378 33.4405 11.6102 33.5504 11.7115 33.6289C11.8128 33.7074 11.9373 33.75 12.0655 33.75H12.1406C13.3668 33.7514 14.5424 34.2391 15.4095 35.1062C16.2765 35.9732 16.7642 37.1488 16.7656 38.375V40.6875Z" fill="#00D1FF"/>
<path d="M24.8594 33.75H25.5127C25.6408 33.75 25.7653 33.7074 25.8667 33.6289C25.968 33.5504 26.0403 33.4405 26.0724 33.3164C26.1044 33.1923 26.0943 33.0611 26.0436 32.9433C25.993 32.8256 25.9046 32.7281 25.7925 32.666C25.0071 32.232 24.3883 31.5492 24.0333 30.7251C23.6783 29.9009 23.6073 28.9822 23.8314 28.1133C24.0555 27.2444 24.5621 26.4746 25.2714 25.925C25.9808 25.3755 26.8527 25.0772 27.75 25.0772C28.6473 25.0772 29.5192 25.3755 30.2286 25.925C30.9379 26.4746 31.4445 27.2444 31.6686 28.1133C31.8927 28.9822 31.8217 29.9009 31.4667 30.7251C31.1117 31.5492 30.4929 32.232 29.7075 32.666C29.5954 32.7281 29.507 32.8256 29.4564 32.9433C29.4057 33.0611 29.3956 33.1923 29.4276 33.3164C29.4597 33.4405 29.532 33.5504 29.6333 33.6289C29.7347 33.7074 29.8592 33.75 29.9873 33.75H30.0625C31.2887 33.7514 32.4643 34.2391 33.3313 35.1062C34.1984 35.9732 34.6861 37.1488 34.6875 38.375V40.6875H20.2344V38.375C20.2358 37.1488 20.7235 35.9732 21.5905 35.1062C22.4576 34.2391 23.6332 33.7514 24.8594 33.75Z" fill="#00D1FF"/>
<line x1="47" y1="-6.10352e-05" x2="47" y2="47.9999" stroke="white" stroke-width="2"/>
<path d="M82.2 13.5999V35.9999H77.944L66.776 22.3999V35.9999H61.656V13.5999H65.944L77.08 27.1999V13.5999H82.2ZM87.1478 18.7839H92.1398V35.9999H87.1478V18.7839ZM89.6438 16.3839C88.7264 16.3839 87.9798 16.1173 87.4038 15.5839C86.8278 15.0506 86.5398 14.3893 86.5398 13.5999C86.5398 12.8106 86.8278 12.1493 87.4038 11.6159C87.9798 11.0826 88.7264 10.8159 89.6438 10.8159C90.5611 10.8159 91.3078 11.0719 91.8838 11.5839C92.4598 12.0959 92.7478 12.7359 92.7478 13.5039C92.7478 14.3359 92.4598 15.0293 91.8838 15.5839C91.3078 16.1173 90.5611 16.3839 89.6438 16.3839ZM105.093 36.2559C103.258 36.2559 101.605 35.8826 100.133 35.1359C98.6821 34.3679 97.5408 33.3119 96.7088 31.9679C95.8981 30.6239 95.4928 29.0986 95.4928 27.3919C95.4928 25.6853 95.8981 24.1599 96.7088 22.8159C97.5408 21.4719 98.6821 20.4266 100.133 19.6799C101.605 18.9119 103.258 18.5279 105.093 18.5279C106.906 18.5279 108.485 18.9119 109.829 19.6799C111.194 20.4266 112.186 21.5039 112.805 22.9119L108.933 24.9919C108.037 23.4133 106.746 22.6239 105.061 22.6239C103.759 22.6239 102.682 23.0506 101.829 23.9039C100.975 24.7573 100.549 25.9199 100.549 27.3919C100.549 28.8639 100.975 30.0266 101.829 30.8799C102.682 31.7333 103.759 32.1599 105.061 32.1599C106.767 32.1599 108.058 31.3706 108.933 29.7919L112.805 31.9039C112.186 33.2693 111.194 34.3359 109.829 35.1039C108.485 35.8719 106.906 36.2559 105.093 36.2559ZM132.324 27.4559C132.324 27.5199 132.292 27.9679 132.228 28.7999H119.204C119.439 29.8666 119.994 30.7093 120.868 31.3279C121.743 31.9466 122.831 32.2559 124.132 32.2559C125.028 32.2559 125.818 32.1279 126.5 31.8719C127.204 31.5946 127.855 31.1679 128.452 30.5919L131.108 33.4719C129.487 35.3279 127.119 36.2559 124.004 36.2559C122.063 36.2559 120.346 35.8826 118.852 35.1359C117.359 34.3679 116.207 33.3119 115.396 31.9679C114.586 30.6239 114.18 29.0986 114.18 27.3919C114.18 25.7066 114.575 24.1919 115.364 22.8479C116.175 21.4826 117.274 20.4266 118.66 19.6799C120.068 18.9119 121.636 18.5279 123.364 18.5279C125.05 18.5279 126.575 18.8906 127.94 19.6159C129.306 20.3413 130.372 21.3866 131.14 22.7519C131.93 24.0959 132.324 25.6639 132.324 27.4559ZM123.396 22.3039C122.266 22.3039 121.316 22.6239 120.548 23.2639C119.78 23.9039 119.311 24.7786 119.14 25.8879H127.62C127.45 24.7999 126.98 23.9359 126.212 23.2959C125.444 22.6346 124.506 22.3039 123.396 22.3039ZM150.246 17.7599V23.6799H160.614V27.8399H150.246V35.9999H145.062V13.5999H161.99V17.7599H150.246ZM172.902 36.2559C171.089 36.2559 169.457 35.8826 168.006 35.1359C166.577 34.3679 165.457 33.3119 164.646 31.9679C163.836 30.6239 163.43 29.0986 163.43 27.3919C163.43 25.6853 163.836 24.1599 164.646 22.8159C165.457 21.4719 166.577 20.4266 168.006 19.6799C169.457 18.9119 171.089 18.5279 172.902 18.5279C174.716 18.5279 176.337 18.9119 177.766 19.6799C179.196 20.4266 180.316 21.4719 181.126 22.8159C181.937 24.1599 182.342 25.6853 182.342 27.3919C182.342 29.0986 181.937 30.6239 181.126 31.9679C180.316 33.3119 179.196 34.3679 177.766 35.1359C176.337 35.8826 174.716 36.2559 172.902 36.2559ZM172.902 32.1599C174.182 32.1599 175.228 31.7333 176.038 30.8799C176.87 30.0053 177.286 28.8426 177.286 27.3919C177.286 25.9413 176.87 24.7893 176.038 23.9359C175.228 23.0613 174.182 22.6239 172.902 22.6239C171.622 22.6239 170.566 23.0613 169.734 23.9359C168.902 24.7893 168.486 25.9413 168.486 27.3919C168.486 28.8426 168.902 30.0053 169.734 30.8799C170.566 31.7333 171.622 32.1599 172.902 32.1599ZM190.447 21.0559C191.044 20.2239 191.844 19.5946 192.847 19.1679C193.871 18.7413 195.044 18.5279 196.367 18.5279V23.1359C195.812 23.0933 195.439 23.0719 195.247 23.0719C193.818 23.0719 192.698 23.4773 191.887 24.2879C191.076 25.0773 190.671 26.2719 190.671 27.8719V35.9999H185.679V18.7839H190.447V21.0559ZM216.804 18.7839V35.9999H212.068V33.9519C211.407 34.6986 210.618 35.2746 209.7 35.6799C208.783 36.0639 207.791 36.2559 206.724 36.2559C204.463 36.2559 202.671 35.6053 201.348 34.3039C200.026 33.0026 199.364 31.0719 199.364 28.5119V18.7839H204.356V27.7759C204.356 30.5493 205.519 31.9359 207.844 31.9359C209.039 31.9359 209.999 31.5519 210.724 30.7839C211.45 29.9946 211.812 28.8319 211.812 27.2959V18.7839H216.804ZM243.477 18.5279C245.632 18.5279 247.338 19.1679 248.597 20.4479C249.877 21.7066 250.517 23.6053 250.517 26.1439V35.9999H245.525V26.9119C245.525 25.5466 245.237 24.5333 244.661 23.8719C244.106 23.1893 243.306 22.8479 242.261 22.8479C241.088 22.8479 240.16 23.2319 239.477 23.9999C238.794 24.7466 238.453 25.8666 238.453 27.3599V35.9999H233.461V26.9119C233.461 24.2026 232.373 22.8479 230.197 22.8479C229.045 22.8479 228.128 23.2319 227.445 23.9999C226.762 24.7466 226.421 25.8666 226.421 27.3599V35.9999H221.429V18.7839H226.197V20.7679C226.837 20.0426 227.616 19.4879 228.533 19.1039C229.472 18.7199 230.496 18.5279 231.605 18.5279C232.821 18.5279 233.92 18.7733 234.901 19.2639C235.882 19.7333 236.672 20.4266 237.269 21.3439C237.973 20.4479 238.858 19.7546 239.925 19.2639C241.013 18.7733 242.197 18.5279 243.477 18.5279Z" fill="#A3E5FF"/>
</svg>
