<svg width="239" height="99" viewBox="0 0 239 99" fill="none" xmlns="http://www.w3.org/2000/svg">
<path d="M8.91912 28.6579H27.3553C27.6828 28.6568 27.9987 28.7791 28.2402 29.0005C28.4816 29.2218 28.6307 29.526 28.6579 29.8524L29.4395 39.1597L32.6439 29.5489C32.7297 29.2913 32.8939 29.067 33.1134 28.9072C33.3329 28.7475 33.5969 28.6603 33.8684 28.6579H36.4737V13.1345L6.72809 15.5144L8.91912 28.6579ZM32.5658 26.0527H14.3289C13.9835 26.0527 13.6521 25.9154 13.4078 25.6711C13.1636 25.4268 13.0263 25.0955 13.0263 24.75C13.0263 24.4045 13.1636 24.0732 13.4078 23.8289C13.6521 23.5846 13.9835 23.4474 14.3289 23.4474H32.5658C32.9113 23.4474 33.2426 23.5846 33.4869 23.8289C33.7312 24.0732 33.8684 24.4045 33.8684 24.75C33.8684 25.0955 33.7312 25.4268 33.4869 25.6711C33.2426 25.9154 32.9113 26.0527 32.5658 26.0527ZM11.7237 18.2369H32.5658C32.9113 18.2369 33.2426 18.3741 33.4869 18.6184C33.7312 18.8627 33.8684 19.194 33.8684 19.5395C33.8684 19.885 33.7312 20.2163 33.4869 20.4606C33.2426 20.7049 32.9113 20.8421 32.5658 20.8421H11.7237C11.3782 20.8421 11.0469 20.7049 10.8026 20.4606C10.5583 20.2163 10.421 19.885 10.421 19.5395C10.421 19.194 10.5583 18.8627 10.8026 18.6184C11.0469 18.3741 11.3782 18.2369 11.7237 18.2369V18.2369Z" fill="#00D1FF"/>
<path d="M46.7944 19.6867L45.6885 35.1711H48.1973C48.4706 35.1713 48.7369 35.2574 48.9585 35.4174C49.1802 35.5773 49.3459 35.8028 49.4322 36.0621L51.9255 43.5418L53.4469 37.4598C53.5141 37.1899 53.6659 36.9485 53.8802 36.7711C54.0944 36.5936 54.3598 36.4894 54.6376 36.4737L76.9621 35.2336L78.0484 23.2911L46.7944 19.6867ZM72.9473 32.5658H50.8026C50.4571 32.5658 50.1258 32.4286 49.8815 32.1843C49.6372 31.94 49.5 31.6087 49.5 31.2632C49.5 30.9177 49.6372 30.5864 49.8815 30.3421C50.1258 30.0978 50.4571 29.9606 50.8026 29.9606H72.9473C73.2928 29.9606 73.6242 30.0978 73.8684 30.3421C74.1127 30.5864 74.25 30.9177 74.25 31.2632C74.25 31.6087 74.1127 31.94 73.8684 32.1843C73.6242 32.4286 73.2928 32.5658 72.9473 32.5658ZM72.9473 27.3553H50.8026C50.4571 27.3553 50.1258 27.2181 49.8815 26.9738C49.6372 26.7295 49.5 26.3981 49.5 26.0527C49.5 25.7072 49.6372 25.3759 49.8815 25.1316C50.1258 24.8873 50.4571 24.75 50.8026 24.75H72.9473C73.2928 24.75 73.6242 24.8873 73.8684 25.1316C74.1127 25.3759 74.25 25.7072 74.25 26.0527C74.25 26.3981 74.1127 26.7295 73.8684 26.9738C73.6242 27.2181 73.2928 27.3553 72.9473 27.3553Z" fill="#00D1FF"/>
<path d="M37.7763 85.9737H5.21051V80.7632C5.21361 78.0003 6.31254 75.3515 8.26619 73.3978C10.2198 71.4442 12.8687 70.3452 15.6316 70.3421H17.1035C17.3923 70.3421 17.6729 70.2461 17.9012 70.0693C18.1294 69.8924 18.2925 69.6447 18.3647 69.3651C18.4368 69.0855 18.4141 68.7898 18.2999 68.5246C18.1857 68.2593 17.9867 68.0395 17.734 67.8997C15.9644 66.9217 14.57 65.3833 13.7702 63.5263C12.9703 61.6694 12.8103 59.5993 13.3153 57.6415C13.8203 55.6837 14.9617 53.9493 16.56 52.7109C18.1583 51.4726 20.1228 50.8006 22.1447 50.8006C24.1666 50.8006 26.1311 51.4726 27.7294 52.7109C29.3277 53.9493 30.4691 55.6837 30.9741 57.6415C31.4791 59.5993 31.3191 61.6694 30.5193 63.5263C29.7194 65.3833 28.325 66.9217 26.5554 67.8997C26.3028 68.0395 26.1037 68.2593 25.9895 68.5246C25.8754 68.7898 25.8526 69.0855 25.9248 69.3651C25.997 69.6447 26.16 69.8924 26.3883 70.0693C26.6166 70.2461 26.8971 70.3421 27.1859 70.3421H27.3552C30.1181 70.3452 32.767 71.4442 34.7206 73.3978C36.6743 75.3515 37.7732 78.0003 37.7763 80.7632V85.9737Z" fill="#00D1FF"/>
<path d="M56.0132 70.3421H57.4851C57.7739 70.3421 58.0545 70.2461 58.2828 70.0693C58.511 69.8924 58.6741 69.6447 58.7463 69.3651C58.8184 69.0855 58.7957 68.7898 58.6815 68.5246C58.5673 68.2593 58.3683 68.0395 58.1156 67.8997C56.346 66.9217 54.9516 65.3833 54.1518 63.5263C53.3519 61.6694 53.1919 59.5993 53.6969 57.6415C54.2019 55.6837 55.3433 53.9493 56.9416 52.7109C58.5399 51.4726 60.5044 50.8006 62.5263 50.8006C64.5482 50.8006 66.5127 51.4726 68.111 52.7109C69.7093 53.9493 70.8507 55.6837 71.3557 57.6415C71.8607 59.5993 71.7007 61.6694 70.9009 63.5263C70.101 65.3833 68.7066 66.9217 66.937 67.8997C66.6844 68.0395 66.4853 68.2593 66.3711 68.5246C66.257 68.7898 66.2342 69.0855 66.3064 69.3651C66.3785 69.6447 66.5416 69.8924 66.7699 70.0693C66.9982 70.2461 67.2787 70.3421 67.5675 70.3421H67.7368C70.4997 70.3452 73.1486 71.4442 75.1022 73.3978C77.0559 75.3515 78.1548 78.0003 78.1579 80.7632V85.9737H45.5921V80.7632C45.5952 78.0003 46.6941 75.3515 48.6478 73.3978C50.6014 71.4442 53.2503 70.3452 56.0132 70.3421Z" fill="#00D1FF"/>
<line x1="96" x2="96" y2="99" stroke="white" stroke-width="2"/>
<path d="M131.2 21.6V44H126.944L115.776 30.4V44H110.656V21.6H114.944L126.08 35.2V21.6H131.2ZM136.148 26.784H141.14V44H136.148V26.784ZM138.644 24.384C137.726 24.384 136.98 24.1173 136.404 23.584C135.828 23.0507 135.54 22.3893 135.54 21.6C135.54 20.8107 135.828 20.1493 136.404 19.616C136.98 19.0827 137.726 18.816 138.644 18.816C139.561 18.816 140.308 19.072 140.884 19.584C141.46 20.096 141.748 20.736 141.748 21.504C141.748 22.336 141.46 23.0293 140.884 23.584C140.308 24.1173 139.561 24.384 138.644 24.384ZM154.093 44.256C152.258 44.256 150.605 43.8827 149.133 43.136C147.682 42.368 146.541 41.312 145.709 39.968C144.898 38.624 144.493 37.0987 144.493 35.392C144.493 33.6853 144.898 32.16 145.709 30.816C146.541 29.472 147.682 28.4267 149.133 27.68C150.605 26.912 152.258 26.528 154.093 26.528C155.906 26.528 157.485 26.912 158.829 27.68C160.194 28.4267 161.186 29.504 161.805 30.912L157.933 32.992C157.037 31.4133 155.746 30.624 154.061 30.624C152.759 30.624 151.682 31.0507 150.829 31.904C149.975 32.7573 149.549 33.92 149.549 35.392C149.549 36.864 149.975 38.0267 150.829 38.88C151.682 39.7333 152.759 40.16 154.061 40.16C155.767 40.16 157.058 39.3707 157.933 37.792L161.805 39.904C161.186 41.2693 160.194 42.336 158.829 43.104C157.485 43.872 155.906 44.256 154.093 44.256ZM181.324 35.456C181.324 35.52 181.292 35.968 181.228 36.8H168.204C168.439 37.8667 168.994 38.7093 169.868 39.328C170.743 39.9467 171.831 40.256 173.132 40.256C174.028 40.256 174.818 40.128 175.5 39.872C176.204 39.5947 176.855 39.168 177.452 38.592L180.108 41.472C178.487 43.328 176.119 44.256 173.004 44.256C171.063 44.256 169.346 43.8827 167.852 43.136C166.359 42.368 165.207 41.312 164.396 39.968C163.586 38.624 163.18 37.0987 163.18 35.392C163.18 33.7067 163.575 32.192 164.364 30.848C165.175 29.4827 166.274 28.4267 167.66 27.68C169.068 26.912 170.636 26.528 172.364 26.528C174.05 26.528 175.575 26.8907 176.94 27.616C178.306 28.3413 179.372 29.3867 180.14 30.752C180.93 32.096 181.324 33.664 181.324 35.456ZM172.396 30.304C171.266 30.304 170.316 30.624 169.548 31.264C168.78 31.904 168.311 32.7787 168.14 33.888H176.62C176.45 32.8 175.98 31.936 175.212 31.296C174.444 30.6347 173.506 30.304 172.396 30.304Z" fill="#A3E5FF"/>
<path d="M115.84 65.76V71.68H126.208V75.84H115.84V84H110.656V61.6H127.584V65.76H115.84ZM138.496 84.256C136.683 84.256 135.051 83.8827 133.6 83.136C132.171 82.368 131.051 81.312 130.24 79.968C129.429 78.624 129.024 77.0987 129.024 75.392C129.024 73.6853 129.429 72.16 130.24 70.816C131.051 69.472 132.171 68.4267 133.6 67.68C135.051 66.912 136.683 66.528 138.496 66.528C140.309 66.528 141.931 66.912 143.36 67.68C144.789 68.4267 145.909 69.472 146.72 70.816C147.531 72.16 147.936 73.6853 147.936 75.392C147.936 77.0987 147.531 78.624 146.72 79.968C145.909 81.312 144.789 82.368 143.36 83.136C141.931 83.8827 140.309 84.256 138.496 84.256ZM138.496 80.16C139.776 80.16 140.821 79.7333 141.632 78.88C142.464 78.0053 142.88 76.8427 142.88 75.392C142.88 73.9413 142.464 72.7893 141.632 71.936C140.821 71.0613 139.776 70.624 138.496 70.624C137.216 70.624 136.16 71.0613 135.328 71.936C134.496 72.7893 134.08 73.9413 134.08 75.392C134.08 76.8427 134.496 78.0053 135.328 78.88C136.16 79.7333 137.216 80.16 138.496 80.16ZM156.041 69.056C156.638 68.224 157.438 67.5947 158.441 67.168C159.465 66.7413 160.638 66.528 161.961 66.528V71.136C161.406 71.0933 161.033 71.072 160.841 71.072C159.411 71.072 158.291 71.4773 157.481 72.288C156.67 73.0773 156.265 74.272 156.265 75.872V84H151.273V66.784H156.041V69.056ZM182.398 66.784V84H177.662V81.952C177.001 82.6987 176.211 83.2747 175.294 83.68C174.377 84.064 173.385 84.256 172.318 84.256C170.057 84.256 168.265 83.6053 166.942 82.304C165.619 81.0027 164.958 79.072 164.958 76.512V66.784H169.95V75.776C169.95 78.5493 171.113 79.936 173.438 79.936C174.633 79.936 175.593 79.552 176.318 78.784C177.043 77.9947 177.406 76.832 177.406 75.296V66.784H182.398ZM209.071 66.528C211.225 66.528 212.932 67.168 214.191 68.448C215.471 69.7067 216.111 71.6053 216.111 74.144V84H211.119V74.912C211.119 73.5467 210.831 72.5333 210.255 71.872C209.7 71.1893 208.9 70.848 207.855 70.848C206.681 70.848 205.753 71.232 205.071 72C204.388 72.7467 204.047 73.8667 204.047 75.36V84H199.055V74.912C199.055 72.2027 197.967 70.848 195.791 70.848C194.639 70.848 193.721 71.232 193.039 72C192.356 72.7467 192.015 73.8667 192.015 75.36V84H187.023V66.784H191.791V68.768C192.431 68.0427 193.209 67.488 194.127 67.104C195.065 66.72 196.089 66.528 197.199 66.528C198.415 66.528 199.513 66.7733 200.495 67.264C201.476 67.7333 202.265 68.4267 202.863 69.344C203.567 68.448 204.452 67.7547 205.519 67.264C206.607 66.7733 207.791 66.528 209.071 66.528Z" fill="#A3E5FF"/>
</svg>
